<?xml version="1.0" standalone="no"?><svg xmlns="http://www.w3.org/2000/svg" viewBox="0 0 1440 320"><path fill="#0099ff" fill-opacity="1" d="M0,192L34.3,186.7C68.6,181,137,171,206,165.3C274.3,160,343,160,411,144C480,128,549,96,617,90.7C685.7,85,754,107,823,138.7C891.4,171,960,213,1029,213.3C1097.1,213,1166,171,1234,165.3C1302.9,160,1371,192,1406,208L1440,224L1440,320L1405.7,320C1371.4,320,1303,320,1234,320C1165.7,320,1097,320,1029,320C960,320,891,320,823,320C754.3,320,686,320,617,320C548.6,320,480,320,411,320C342.9,320,274,320,206,320C137.1,320,69,320,34,320L0,320Z"></path></svg>